<svg width="54" height="54" viewBox="0 0 54 54" fill="none" xmlns="http://www.w3.org/2000/svg">
<path fill-rule="evenodd" clip-rule="evenodd" d="M27 54C41.9117 54 54 41.9117 54 27C54 12.0883 41.9117 0 27 0C12.0883 0 0 12.0883 0 27C0 41.9117 12.0883 54 27 54ZM21.1 35.14C21.16 35.1 20.85 35.35 20.17 35.89V39.7H35.23V35.53H27.13C29.39 33.79 31.25 32.01 32.71 30.19C34.17 28.35 34.9 26.36 34.9 24.22C34.9 22.26 34.29 20.67 33.07 19.45C31.87 18.23 30.08 17.62 27.7 17.62C26.32 17.62 25.06 17.89 23.92 18.43C22.8 18.97 21.89 19.81 21.19 20.95C20.51 22.09 20.15 23.51 20.11 25.21H25.06C25.06 24.17 25.27 23.37 25.69 22.81C26.13 22.23 26.73 21.94 27.49 21.94C28.25 21.94 28.82 22.17 29.2 22.63C29.58 23.09 29.77 23.73 29.77 24.55C29.77 25.63 29.38 26.74 28.6 27.88C27.82 29.02 26.86 30.11 25.72 31.15C24.6 32.19 23.06 33.52 21.1 35.14Z" fill="black" fill-opacity="0.65"/>
</svg>
