<svg width="1302" height="874" viewBox="0 0 1302 874" fill="none" xmlns="http://www.w3.org/2000/svg">
<g clip-path="url(#clip0_1927_19008)">
<rect width="1302" height="874" rx="20" fill="url(#paint0_linear_1927_19008)"/>
<g clip-path="url(#clip1_1927_19008)">
<path d="M316.949 862.025C306.581 835.348 290.713 809.013 265.334 795.702C240.394 782.628 210.679 784.2 182.518 784.973C154.357 785.745 123.994 784.701 101.473 767.814C71.3744 745.243 63.0635 699.918 29.9177 682.092C20.6168 677.089 10.4862 674.884 0 674V874H321C319.898 869.937 318.469 865.936 316.949 862.025Z" fill="#F6F6F6" fill-opacity="0.15"/>
</g>
<g clip-path="url(#clip2_1927_19008)">
<path d="M985.051 862.025C995.419 835.348 1011.29 809.013 1036.67 795.702C1061.61 782.628 1091.32 784.2 1119.48 784.973C1147.64 785.745 1178.01 784.701 1200.53 767.814C1230.63 745.243 1238.94 699.918 1272.08 682.092C1281.38 677.089 1291.51 674.884 1302 674V874H981C982.102 869.937 983.531 865.936 985.051 862.025Z" fill="#F6F6F6" fill-opacity="0.15"/>
</g>
<g clip-path="url(#clip3_1927_19008)">
<path d="M316.949 7.84341C306.581 25.3168 290.713 42.5668 265.334 51.2852C240.394 59.8487 210.679 58.8187 182.518 58.3129C154.357 57.807 123.994 58.4906 101.473 69.5516C71.3744 84.336 63.0635 114.023 29.9177 125.7C20.6168 128.976 10.4862 130.421 0 131V0H321C319.898 2.66156 318.469 5.28211 316.949 7.84341Z" fill="#D9D9D9" fill-opacity="0.05"/>
</g>
<g clip-path="url(#clip4_1927_19008)">
<path d="M985.051 7.84341C995.419 25.3168 1011.29 42.5668 1036.67 51.2852C1061.61 59.8487 1091.32 58.8187 1119.48 58.3129C1147.64 57.807 1178.01 58.4906 1200.53 69.5516C1230.63 84.336 1238.94 114.023 1272.08 125.7C1281.38 128.976 1291.51 130.421 1302 131V0H981C982.102 2.66156 983.531 5.28211 985.051 7.84341Z" fill="#D9D9D9" fill-opacity="0.05"/>
</g>
</g>
<defs>
<linearGradient id="paint0_linear_1927_19008" x1="1302" y1="-2.7681e-05" x2="168.58" y2="1055.09" gradientUnits="userSpaceOnUse">
<stop stop-color="#3B3B3B"/>
<stop offset="1"/>
</linearGradient>
<clipPath id="clip0_1927_19008">
<rect width="1302" height="874" rx="20" fill="white"/>
</clipPath>
<clipPath id="clip1_1927_19008">
<rect width="321" height="200" fill="white" transform="translate(0 674)"/>
</clipPath>
<clipPath id="clip2_1927_19008">
<rect width="321" height="200" fill="white" transform="matrix(-1 0 0 1 1302 674)"/>
</clipPath>
<clipPath id="clip3_1927_19008">
<rect width="321" height="131" fill="white" transform="matrix(1 0 0 -1 0 131)"/>
</clipPath>
<clipPath id="clip4_1927_19008">
<rect width="321" height="131" fill="white" transform="matrix(-1 0 0 -1 1302 131)"/>
</clipPath>
</defs>
</svg>
