<svg width="209" height="153" viewBox="0 0 209 153" fill="none" xmlns="http://www.w3.org/2000/svg">
<path d="M204.521 20.5008L76.5208 148.501C75.406 149.62 74.0813 150.507 72.6226 151.113C71.164 151.719 69.6002 152.03 68.0208 152.03C66.4414 152.03 64.8776 151.719 63.419 151.113C61.9604 150.507 60.6357 149.62 59.5208 148.501L3.52081 92.5008C2.40458 91.3846 1.51913 90.0594 0.91503 88.601C0.310927 87.1426 1.66332e-08 85.5794 0 84.0008C-1.66332e-08 82.4222 0.310927 80.8591 0.91503 79.4007C1.51913 77.9422 2.40458 76.6171 3.52081 75.5008C4.63705 74.3846 5.96221 73.4991 7.42065 72.895C8.87908 72.2909 10.4422 71.98 12.0208 71.98C13.5994 71.98 15.1626 72.2909 16.621 72.895C18.0794 73.4991 19.4046 74.3846 20.5208 75.5008L68.0308 123.011L187.541 3.52081C189.795 1.26647 192.853 0 196.041 0C199.229 0 202.286 1.26647 204.541 3.52081C206.795 5.77515 208.062 8.8327 208.062 12.0208C208.062 15.2089 206.795 18.2665 204.541 20.5208L204.521 20.5008Z" fill="black"/>
</svg>
