<svg width="1550" height="936" viewBox="0 0 1550 936" fill="none" xmlns="http://www.w3.org/2000/svg">
<g clip-path="url(#clip0_1346_947)">
<rect width="936" height="1550" transform="matrix(0 1 -1 0 1550 0)" fill="url(#paint0_linear_1346_947)"/>
<path d="M10.8679 264.143C10.8679 267.362 8.43198 269.978 5.43394 269.978C2.43591 269.978 0 267.362 0 264.143C0 260.923 2.43591 258.308 5.43394 258.308C8.43198 258.308 10.8679 260.923 10.8679 264.143Z" fill="#895293"/>
<path d="M44.9441 227.262C44.9441 230.482 42.5082 233.097 39.5101 233.097C36.5121 233.097 34.0762 230.482 34.0762 227.262C34.0762 224.043 36.5121 221.427 39.5101 221.427C42.5082 221.427 44.9441 224.043 44.9441 227.262Z" fill="#895293"/>
<path d="M10.8679 227.262C10.8679 230.482 8.43198 233.097 5.43394 233.097C2.43591 233.097 0 230.482 0 227.262C0 224.043 2.43591 221.427 5.43394 221.427C8.43198 221.427 10.8679 224.043 10.8679 227.262Z" fill="#895293"/>
<path d="M79.0466 190.353C79.0466 193.572 76.6107 196.188 73.6127 196.188C70.6146 196.188 68.1787 193.572 68.1787 190.353C68.1787 187.133 70.6146 184.518 73.6127 184.518C76.6107 184.518 79.0466 187.133 79.0466 190.353Z" fill="#895293"/>
<path d="M44.9441 190.353C44.9441 193.572 42.5082 196.188 39.5101 196.188C36.5121 196.188 34.0762 193.572 34.0762 190.353C34.0762 187.133 36.5121 184.518 39.5101 184.518C42.5082 184.518 44.9441 187.133 44.9441 190.353Z" fill="#895293"/>
<path d="M10.8679 190.353C10.8679 193.572 8.43198 196.188 5.43394 196.188C2.43591 196.188 0 193.572 0 190.353C0 187.133 2.43591 184.518 5.43394 184.518C8.43198 184.518 10.8679 187.133 10.8679 190.353Z" fill="#895293"/>
<path d="M113.123 153.444C113.123 156.663 110.687 159.279 107.689 159.279C104.691 159.279 102.255 156.663 102.255 153.444C102.255 150.224 104.691 147.608 107.689 147.608C110.687 147.608 113.123 150.224 113.123 153.444Z" fill="#895293"/>
<path d="M79.0466 153.444C79.0466 156.663 76.6107 159.279 73.6127 159.279C70.6146 159.279 68.1787 156.663 68.1787 153.444C68.1787 150.224 70.6146 147.608 73.6127 147.608C76.6107 147.608 79.0466 150.224 79.0466 153.444Z" fill="#895293"/>
<path d="M44.9441 153.444C44.9441 156.663 42.5082 159.279 39.5101 159.279C36.5121 159.279 34.0762 156.663 34.0762 153.444C34.0762 150.224 36.5121 147.608 39.5101 147.608C42.5082 147.608 44.9441 150.224 44.9441 153.444Z" fill="#895293"/>
<path d="M10.8679 153.444C10.8679 156.663 8.43198 159.279 5.43394 159.279C2.43591 159.279 0 156.663 0 153.444C0 150.224 2.43591 147.608 5.43394 147.608C8.43198 147.608 10.8679 150.224 10.8679 153.444Z" fill="#895293"/>
<path d="M147.199 116.563C147.199 119.782 144.763 122.398 141.765 122.398C138.767 122.398 136.331 119.782 136.331 116.563C136.331 113.343 138.767 110.728 141.765 110.728C144.763 110.728 147.199 113.343 147.199 116.563Z" fill="#895293"/>
<path d="M113.123 116.563C113.123 119.782 110.687 122.398 107.689 122.398C104.691 122.398 102.255 119.782 102.255 116.563C102.255 113.343 104.691 110.728 107.689 110.728C110.687 110.728 113.123 113.343 113.123 116.563Z" fill="#895293"/>
<path d="M79.0466 116.563C79.0466 119.782 76.6107 122.398 73.6127 122.398C70.6146 122.398 68.1787 119.782 68.1787 116.563C68.1787 113.343 70.6146 110.728 73.6127 110.728C76.6107 110.728 79.0466 113.343 79.0466 116.563Z" fill="#895293"/>
<path d="M44.9441 116.563C44.9441 119.782 42.5082 122.398 39.5101 122.398C36.5121 122.398 34.0762 119.782 34.0762 116.563C34.0762 113.343 36.5121 110.728 39.5101 110.728C42.5082 110.728 44.9441 113.343 44.9441 116.563Z" fill="#895293"/>
<path d="M10.8679 116.563C10.8679 119.782 8.43198 122.398 5.43394 122.398C2.43591 122.398 0 119.782 0 116.563C0 113.343 2.43591 110.728 5.43394 110.728C8.43198 110.728 10.8679 113.343 10.8679 116.563Z" fill="#895293"/>
<path d="M181.274 79.6537C181.274 82.8732 178.838 85.489 175.84 85.489C172.842 85.489 170.406 82.8732 170.406 79.6537C170.406 76.4342 172.842 73.8184 175.84 73.8184C178.838 73.8184 181.274 76.4342 181.274 79.6537Z" fill="#895293"/>
<path d="M147.199 79.6537C147.199 82.8732 144.763 85.489 141.765 85.489C138.767 85.489 136.331 82.8732 136.331 79.6537C136.331 76.4342 138.767 73.8184 141.765 73.8184C144.763 73.8184 147.199 76.4342 147.199 79.6537Z" fill="#895293"/>
<path d="M113.123 79.6537C113.123 82.8732 110.687 85.489 107.689 85.489C104.691 85.489 102.255 82.8732 102.255 79.6537C102.255 76.4342 104.691 73.8184 107.689 73.8184C110.687 73.8184 113.123 76.4342 113.123 79.6537Z" fill="#895293"/>
<path d="M79.0466 79.6537C79.0466 82.8732 76.6107 85.489 73.6127 85.489C70.6146 85.489 68.1787 82.8732 68.1787 79.6537C68.1787 76.4342 70.6146 73.8184 73.6127 73.8184C76.6107 73.8184 79.0466 76.4342 79.0466 79.6537Z" fill="#895293"/>
<path d="M44.9441 79.6537C44.9441 82.8732 42.5082 85.489 39.5101 85.489C36.5121 85.489 34.0762 82.8732 34.0762 79.6537C34.0762 76.4342 36.5121 73.8184 39.5101 73.8184C42.5082 73.8184 44.9441 76.4342 44.9441 79.6537Z" fill="#895293"/>
<path d="M10.8679 79.6537C10.8679 82.8732 8.43198 85.489 5.43394 85.489C2.43591 85.489 0 82.8732 0 79.6537C0 76.4342 2.43591 73.8184 5.43394 73.8184C8.43198 73.8184 10.8679 76.4342 10.8679 79.6537Z" fill="#895293"/>
<path d="M215.378 42.7445C215.378 45.964 212.942 48.5799 209.944 48.5799C206.946 48.5799 204.51 45.964 204.51 42.7445C204.51 39.525 206.946 36.9092 209.944 36.9092C212.942 36.9092 215.378 39.525 215.378 42.7445Z" fill="#895293"/>
<path d="M181.274 42.7445C181.274 45.964 178.838 48.5799 175.84 48.5799C172.842 48.5799 170.406 45.964 170.406 42.7445C170.406 39.525 172.842 36.9092 175.84 36.9092C178.838 36.9092 181.274 39.525 181.274 42.7445Z" fill="#895293"/>
<path d="M147.199 42.7445C147.199 45.964 144.763 48.5799 141.765 48.5799C138.767 48.5799 136.331 45.964 136.331 42.7445C136.331 39.525 138.767 36.9092 141.765 36.9092C144.763 36.9092 147.199 39.525 147.199 42.7445Z" fill="#895293"/>
<path d="M113.123 42.7445C113.123 45.964 110.687 48.5799 107.689 48.5799C104.691 48.5799 102.255 45.964 102.255 42.7445C102.255 39.525 104.691 36.9092 107.689 36.9092C110.687 36.9092 113.123 39.525 113.123 42.7445Z" fill="#895293"/>
<path d="M79.0466 42.7445C79.0466 45.964 76.6107 48.5799 73.6127 48.5799C70.6146 48.5799 68.1787 45.964 68.1787 42.7445C68.1787 39.525 70.6146 36.9092 73.6127 36.9092C76.6107 36.9092 79.0466 39.525 79.0466 42.7445Z" fill="#895293"/>
<path d="M44.9441 42.7445C44.9441 45.964 42.5082 48.5799 39.5101 48.5799C36.5121 48.5799 34.0762 45.964 34.0762 42.7445C34.0762 39.525 36.5121 36.9092 39.5101 36.9092C42.5082 36.9092 44.9441 39.525 44.9441 42.7445Z" fill="#895293"/>
<path d="M10.8679 42.7445C10.8679 45.964 8.43198 48.5799 5.43394 48.5799C2.43591 48.5799 0 45.964 0 42.7445C0 39.525 2.43591 36.9092 5.43394 36.9092C8.43198 36.9092 10.8679 39.525 10.8679 42.7445Z" fill="#895293"/>
<path d="M249.453 5.83535C249.453 9.05485 247.017 11.6707 244.019 11.6707C241.021 11.6707 238.585 9.05485 238.585 5.83535C238.585 2.61584 241.021 0 244.019 0C247.017 0 249.453 2.61584 249.453 5.83535Z" fill="#895293"/>
<path d="M215.378 5.83535C215.378 9.05485 212.942 11.6707 209.944 11.6707C206.946 11.6707 204.51 9.05485 204.51 5.83535C204.51 2.61584 206.946 0 209.944 0C212.942 0 215.378 2.61584 215.378 5.83535Z" fill="#895293"/>
<path d="M181.274 5.83535C181.274 9.05485 178.838 11.6707 175.84 11.6707C172.842 11.6707 170.406 9.05485 170.406 5.83535C170.406 2.61584 172.842 0 175.84 0C178.838 0 181.274 2.61584 181.274 5.83535Z" fill="#895293"/>
<path d="M147.199 5.83535C147.199 9.05485 144.763 11.6707 141.765 11.6707C138.767 11.6707 136.331 9.05485 136.331 5.83535C136.331 2.61584 138.767 0 141.765 0C144.763 0 147.199 2.61584 147.199 5.83535Z" fill="#895293"/>
<path d="M113.123 5.83535C113.123 9.05485 110.687 11.6707 107.689 11.6707C104.691 11.6707 102.255 9.05485 102.255 5.83535C102.255 2.61584 104.691 0 107.689 0C110.687 0 113.123 2.61584 113.123 5.83535Z" fill="#895293"/>
<path d="M79.0466 5.83535C79.0466 9.05485 76.6107 11.6707 73.6127 11.6707C70.6146 11.6707 68.1787 9.05485 68.1787 5.83535C68.1787 2.61584 70.6146 0 73.6127 0C76.6107 0 79.0466 2.61584 79.0466 5.83535Z" fill="#895293"/>
<path d="M44.9441 5.83535C44.9441 9.05485 42.5082 11.6707 39.5101 11.6707C36.5121 11.6707 34.0762 9.05485 34.0762 5.83535C34.0762 2.61584 36.5121 0 39.5101 0C42.5082 0 44.9441 2.61584 44.9441 5.83535Z" fill="#895293"/>
<path d="M10.8679 5.83535C10.8679 9.05485 8.43198 11.6707 5.43394 11.6707C2.43591 11.6707 0 9.05485 0 5.83535C0 2.61584 2.43591 0 5.43394 0C8.43198 0 10.8679 2.61584 10.8679 5.83535Z" fill="#895293"/>
<path d="M31.0741 818.142L155.108 860.241L161.734 818.813L37.6994 776.714L31.0741 818.142Z" fill="#80BDC6"/>
<path d="M155.109 860.489C155.097 860.489 155.083 860.488 155.07 860.483L77.0195 833.991C76.9279 833.96 76.8711 833.827 76.892 833.693C76.9136 833.559 77.0057 833.479 77.0966 833.508L155.147 860C155.239 860.031 155.296 860.164 155.275 860.298C155.256 860.413 155.187 860.489 155.109 860.489Z" fill="black"/>
<path d="M159.797 831.182C159.784 831.182 159.771 831.18 159.758 831.176L78.5312 803.605C78.4397 803.573 78.3828 803.441 78.4038 803.307C78.4253 803.173 78.5168 803.089 78.6084 803.121L159.835 830.692C159.927 830.723 159.984 830.857 159.963 830.99C159.944 831.105 159.874 831.182 159.797 831.182Z" fill="black"/>
<path d="M68.2822 800.12C68.2697 800.12 68.2565 800.118 68.2433 800.114L35.7226 789.076C35.6311 789.044 35.5742 788.912 35.5952 788.778C35.6167 788.644 35.7088 788.559 35.7998 788.592L68.3205 799.63C68.412 799.661 68.4689 799.794 68.4479 799.928C68.4294 800.043 68.36 800.12 68.2822 800.12Z" fill="black"/>
<path d="M106.5 825.405C106.488 825.405 106.475 825.403 106.462 825.399L47.1679 805.273C47.0764 805.242 47.0195 805.109 47.0405 804.975C47.062 804.841 47.1541 804.756 47.2451 804.79L106.539 824.915C106.631 824.946 106.688 825.08 106.667 825.213C106.648 825.328 106.578 825.405 106.5 825.405Z" fill="black"/>
<path d="M136.326 848.305C136.273 848.305 136.22 848.27 136.188 848.202C136.133 848.09 136.151 847.935 136.228 847.857L140.623 843.308C140.699 843.226 140.806 843.254 140.86 843.366C140.915 843.477 140.897 843.632 140.82 843.711L136.425 848.259C136.395 848.291 136.36 848.305 136.326 848.305Z" fill="black"/>
<path d="M108.897 810.421C108.843 810.421 108.79 810.383 108.757 810.313C108.703 810.201 108.723 810.047 108.8 809.968L112.602 806.147C112.677 806.069 112.785 806.096 112.838 806.21C112.891 806.323 112.872 806.477 112.794 806.555L108.993 810.377C108.964 810.407 108.93 810.421 108.897 810.421Z" fill="black"/>
<path d="M81.1821 832.144C81.1695 832.144 81.1563 832.143 81.1438 832.138L31.5302 815.298C31.4387 815.267 31.3818 815.135 31.4028 815C31.4243 814.867 31.5158 814.782 31.6074 814.815L81.2209 831.654C81.3125 831.686 81.3693 831.818 81.3484 831.953C81.3298 832.068 81.2604 832.144 81.1827 832.144H81.1821Z" fill="black"/>
<path d="M141.744 837.367C141.731 837.367 141.718 837.365 141.705 837.361L131.571 833.922C131.48 833.891 131.423 833.757 131.444 833.624C131.465 833.491 131.557 833.407 131.648 833.438L141.783 836.877C141.875 836.909 141.931 837.042 141.911 837.175C141.892 837.29 141.823 837.367 141.745 837.367H141.744Z" fill="black"/>
<path d="M33.154 805.388C33.1415 805.388 33.1283 805.386 33.1152 805.382C33.0236 805.351 32.9668 805.217 32.9877 805.084L37.5726 776.415L37.7383 776.471L90.982 794.543C91.0735 794.574 91.1304 794.707 91.1094 794.841C91.0879 794.974 90.9946 795.053 90.9048 795.027L37.8269 777.01L33.3192 805.196C33.3006 805.311 33.2312 805.387 33.1535 805.387L33.154 805.388Z" fill="black"/>
<path d="M69.083 831.103V927.984H134.476L69.083 831.103Z" fill="#AA9601"/>
<path d="M134.838 928.204H69.0826C68.9989 928.204 68.9307 928.105 68.9307 927.983C68.9307 927.861 68.9989 927.762 69.0826 927.762H134.113L89.6823 861.936C89.6231 861.849 89.6243 861.708 89.6841 861.624C89.7433 861.539 89.8396 861.539 89.8983 861.627L134.837 928.205L134.838 928.204Z" fill="black"/>
<path d="M85.3381 926.993C85.2545 926.993 85.1865 926.894 85.1865 926.772V882.907C85.1865 882.785 85.2545 882.686 85.3381 882.686C85.4216 882.686 85.4896 882.785 85.4896 882.907V926.772C85.4896 926.894 85.4216 926.993 85.3381 926.993Z" fill="black"/>
<path d="M94.3898 928.204C94.3063 928.204 94.2383 928.105 94.2383 927.983V908.204C94.2383 908.082 94.3063 907.982 94.3898 907.982C94.4733 907.982 94.5414 908.082 94.5414 908.204V927.983C94.5414 928.105 94.4733 928.204 94.3898 928.204Z" fill="black"/>
<path d="M76.6574 873.911C76.6257 873.911 76.5939 873.897 76.567 873.867C76.5 873.795 76.4857 873.656 76.5359 873.558L80.0458 866.696C80.096 866.597 80.1917 866.578 80.2575 866.651C80.3245 866.723 80.3389 866.862 80.2886 866.959L76.7788 873.822C76.7489 873.88 76.7034 873.911 76.6574 873.911Z" fill="black"/>
<path d="M107.875 917.037C107.853 917.037 107.829 917.03 107.808 917.014C107.732 916.96 107.702 916.827 107.74 916.718L110.695 908.106C110.733 907.997 110.825 907.954 110.899 908.008C110.974 908.062 111.005 908.195 110.966 908.304L108.011 916.915C107.985 916.993 107.931 917.037 107.875 917.037Z" fill="black"/>
<path d="M97.2712 786.189C103.234 777.501 103.234 763.417 97.2712 754.729C91.3081 746.042 81.64 746.042 75.677 754.729C69.7139 763.417 69.7139 777.501 75.677 786.189C81.64 794.876 91.3081 794.876 97.2712 786.189Z" fill="#DF5E02"/>
<path d="M88.7599 770.584C88.742 770.584 88.724 770.576 88.7085 770.559C88.6714 770.517 88.6636 770.44 88.6917 770.385L93.2108 761.609C93.2401 761.555 93.2934 761.543 93.3305 761.584C93.3676 761.626 93.3753 761.704 93.3472 761.759L88.8281 770.535C88.8114 770.567 88.7857 770.584 88.7599 770.584Z" fill="black"/>
<path d="M88.5005 780.647C88.4814 780.647 88.4622 780.637 88.4467 780.619C88.4096 780.575 88.4048 780.497 88.4341 780.445L90.9527 775.943C90.9832 775.889 91.0364 775.883 91.0723 775.925C91.1094 775.968 91.1142 776.047 91.0849 776.099L88.5663 780.601C88.5495 780.631 88.525 780.647 88.5005 780.647Z" fill="black"/>
<path d="M79.3589 767.179C79.3422 767.179 79.3248 767.173 79.3099 767.158C79.271 767.118 79.262 767.04 79.2889 766.984L83.0285 759.191C83.056 759.137 83.1087 759.121 83.1475 759.161C83.1864 759.2 83.1954 759.278 83.1685 759.334L79.4289 767.127C79.4122 767.161 79.3858 767.18 79.3589 767.18V767.179Z" fill="black"/>
<path d="M180.878 860.57H134.604V927.983H180.878V860.57Z" fill="#D92C2A"/>
<path d="M151.645 928.204H134.452V882.167C134.452 882.045 134.52 881.945 134.604 881.945C134.688 881.945 134.756 882.045 134.756 882.167V927.762H151.645C151.729 927.762 151.797 927.861 151.797 927.983C151.797 928.105 151.729 928.204 151.645 928.204Z" fill="black"/>
<path d="M180.877 860.791H162.728C162.644 860.791 162.576 860.692 162.576 860.57C162.576 860.448 162.644 860.349 162.728 860.349H180.877C180.961 860.349 181.029 860.448 181.029 860.57C181.029 860.692 180.961 860.791 180.877 860.791Z" fill="black"/>
<path d="M157.741 899.747C157.716 899.747 157.692 899.739 157.669 899.721C157.595 899.664 157.567 899.528 157.607 899.421C159.554 894.154 162.486 886.162 162.584 885.731C162.611 885.615 162.697 885.547 162.776 885.592C162.855 885.63 162.898 885.756 162.871 885.871C162.733 886.476 158.37 898.286 157.874 899.63C157.846 899.705 157.794 899.747 157.74 899.747H157.741Z" fill="black"/>
<path d="M164.945 914.481C164.915 914.481 164.885 914.468 164.858 914.441C164.79 914.372 164.772 914.234 164.82 914.134L168.561 906.263C168.61 906.164 168.704 906.137 168.773 906.207C168.841 906.277 168.859 906.415 168.811 906.515L165.071 914.386C165.041 914.447 164.994 914.481 164.946 914.481H164.945Z" fill="black"/>
<path d="M172.428 873.306H143.126C143.042 873.306 142.974 873.207 142.974 873.085C142.974 872.963 143.042 872.863 143.126 872.863H172.428C172.512 872.863 172.58 872.963 172.58 873.085C172.58 873.207 172.512 873.306 172.428 873.306Z" fill="black"/>
<path d="M180.878 879.764H169.933C169.849 879.764 169.781 879.665 169.781 879.543C169.781 879.421 169.849 879.321 169.933 879.321H180.878C180.962 879.321 181.03 879.421 181.03 879.543C181.03 879.665 180.962 879.764 180.878 879.764Z" fill="black"/>
<path d="M157.741 916.498H134.604C134.52 916.498 134.452 916.399 134.452 916.277C134.452 916.155 134.52 916.056 134.604 916.056H157.741C157.825 916.056 157.893 916.155 157.893 916.277C157.893 916.399 157.825 916.498 157.741 916.498Z" fill="black"/>
<path d="M214.962 935.051C234.01 934.459 249.309 924.222 249.133 912.186C248.958 900.15 233.374 890.872 214.326 891.464C195.278 892.055 179.979 902.293 180.155 914.329C180.33 926.365 195.914 935.643 214.962 935.051Z" fill="#305A60"/>
<path d="M213.112 921.774C213.088 921.774 213.064 921.765 213.041 921.749L200.359 912.048C200.284 911.991 200.256 911.857 200.295 911.749C200.334 911.641 200.426 911.6 200.5 911.656L213.183 921.357C213.257 921.415 213.286 921.548 213.246 921.656C213.219 921.731 213.166 921.774 213.112 921.774Z" fill="black"/>
<path d="M230.057 919.634C230.03 919.634 230.004 919.623 229.979 919.603L216.788 908.303C216.716 908.241 216.691 908.105 216.734 908C216.776 907.895 216.87 907.861 216.942 907.921L230.134 919.221C230.205 919.283 230.23 919.419 230.188 919.525C230.159 919.595 230.109 919.634 230.057 919.634Z" fill="black"/>
<path d="M220.529 902.972C220.501 902.972 220.473 902.96 220.448 902.938L214.689 897.665C214.618 897.6 214.597 897.464 214.641 897.36C214.686 897.255 214.779 897.225 214.851 897.29L220.609 902.563C220.681 902.627 220.701 902.764 220.657 902.868C220.628 902.935 220.579 902.972 220.529 902.972Z" fill="black"/>
<path d="M46.6104 883.116C54.8459 855.214 54.7876 828.375 46.4801 823.171C38.1725 817.967 24.7617 836.368 16.5261 864.271C8.29052 892.174 8.34885 919.013 16.6564 924.217C24.9639 929.421 38.3748 911.019 46.6104 883.116Z" fill="#305A60"/>
<path d="M27.4251 864.485C27.3754 864.485 27.3264 864.454 27.2934 864.392C27.2372 864.286 27.251 864.135 27.3234 864.052L39.7069 850.051C39.7798 849.97 39.8839 849.99 39.9402 850.095C39.9964 850.201 39.9826 850.352 39.9103 850.435L27.5268 864.436C27.4963 864.47 27.461 864.487 27.4251 864.487V864.485Z" fill="black"/>
<path d="M21.2041 890.039C21.152 890.039 21.1006 890.003 21.0683 889.936C21.0156 889.827 21.0336 889.675 21.1089 889.598L34.8163 875.586C34.8893 875.509 34.9946 875.535 35.0478 875.645C35.1005 875.754 35.0825 875.906 35.0072 875.983L21.2998 889.995C21.2711 890.025 21.237 890.039 21.2041 890.039Z" fill="black"/>
<path d="M36.914 883.771C36.8602 883.771 36.8069 883.733 36.7758 883.662C36.7249 883.551 36.7459 883.401 36.8231 883.328L43.0393 877.364C43.1153 877.291 43.2194 877.321 43.2691 877.432C43.3199 877.544 43.299 877.694 43.2218 877.767L37.0055 883.731C36.9774 883.758 36.9457 883.771 36.9146 883.771H36.914Z" fill="black"/>
<path d="M1520.54 817.98L1396.51 859.993L1389.88 818.65L1513.91 776.637L1520.54 817.98Z" fill="#80BDC6"/>
<path d="M1396.51 860.241C1396.52 860.241 1396.53 860.239 1396.54 860.235L1474.59 833.797C1474.69 833.766 1474.74 833.633 1474.72 833.5C1474.7 833.366 1474.61 833.286 1474.52 833.314L1396.47 859.752C1396.38 859.783 1396.32 859.916 1396.34 860.049C1396.36 860.164 1396.43 860.241 1396.51 860.241Z" fill="black"/>
<path d="M1391.82 830.993C1391.83 830.993 1391.84 830.992 1391.86 830.987L1473.08 803.473C1473.17 803.442 1473.23 803.309 1473.21 803.175C1473.19 803.042 1473.1 802.958 1473.01 802.99L1391.78 830.505C1391.69 830.536 1391.63 830.669 1391.65 830.802C1391.67 830.917 1391.74 830.993 1391.82 830.993Z" fill="black"/>
<path d="M1483.33 799.995C1483.34 799.995 1483.36 799.993 1483.37 799.989L1515.89 788.973C1515.98 788.942 1516.04 788.81 1516.02 788.676C1516 788.543 1515.91 788.457 1515.81 788.491L1483.29 799.506C1483.2 799.537 1483.15 799.669 1483.17 799.803C1483.18 799.918 1483.25 799.995 1483.33 799.995Z" fill="black"/>
<path d="M1445.11 825.228C1445.13 825.228 1445.14 825.226 1445.15 825.222L1504.45 805.138C1504.54 805.106 1504.59 804.973 1504.57 804.84C1504.55 804.706 1504.46 804.621 1504.37 804.655L1445.07 824.739C1444.98 824.77 1444.93 824.903 1444.95 825.036C1444.97 825.151 1445.04 825.228 1445.11 825.228Z" fill="black"/>
<path d="M1415.29 848.082C1415.34 848.082 1415.39 848.046 1415.43 847.979C1415.48 847.867 1415.46 847.713 1415.39 847.634L1410.99 843.095C1410.91 843.013 1410.81 843.041 1410.75 843.152C1410.7 843.264 1410.72 843.419 1410.79 843.497L1415.19 848.036C1415.22 848.067 1415.25 848.082 1415.29 848.082Z" fill="black"/>
<path d="M1442.72 810.274C1442.77 810.274 1442.82 810.237 1442.86 810.167C1442.91 810.055 1442.89 809.901 1442.81 809.823L1439.01 806.009C1438.94 805.931 1438.83 805.958 1438.78 806.072C1438.72 806.185 1438.74 806.338 1438.82 806.417L1442.62 810.231C1442.65 810.26 1442.68 810.274 1442.72 810.274Z" fill="black"/>
<path d="M1470.43 831.953C1470.44 831.953 1470.46 831.952 1470.47 831.947L1520.08 815.142C1520.18 815.111 1520.23 814.979 1520.21 814.845C1520.19 814.712 1520.1 814.626 1520.01 814.659L1470.39 831.465C1470.3 831.496 1470.24 831.628 1470.27 831.762C1470.28 831.877 1470.35 831.953 1470.43 831.953H1470.43Z" fill="black"/>
<path d="M1409.87 837.166C1409.88 837.166 1409.9 837.164 1409.91 837.16L1420.04 833.728C1420.13 833.696 1420.19 833.563 1420.17 833.43C1420.15 833.297 1420.06 833.214 1419.97 833.245L1409.83 836.677C1409.74 836.708 1409.68 836.841 1409.7 836.974C1409.72 837.089 1409.79 837.166 1409.87 837.166H1409.87Z" fill="black"/>
<path d="M1518.46 805.253C1518.47 805.253 1518.49 805.251 1518.5 805.247C1518.59 805.215 1518.65 805.082 1518.63 804.949L1514.04 776.339L1513.88 776.395L1460.63 794.43C1460.54 794.461 1460.48 794.593 1460.5 794.727C1460.53 794.86 1460.62 794.938 1460.71 794.912L1513.79 776.933L1518.3 805.06C1518.31 805.175 1518.38 805.252 1518.46 805.252L1518.46 805.253Z" fill="black"/>
<path d="M1482.53 830.913V927.595H1417.14L1482.53 830.913Z" fill="#AA9601"/>
<path d="M1416.78 927.816H1482.53C1482.62 927.816 1482.68 927.717 1482.68 927.595C1482.68 927.473 1482.62 927.374 1482.53 927.374H1417.5L1461.93 861.683C1461.99 861.596 1461.99 861.456 1461.93 861.372C1461.87 861.287 1461.77 861.288 1461.72 861.374L1416.78 927.817L1416.78 927.816Z" fill="black"/>
<path d="M1466.28 926.607C1466.36 926.607 1466.43 926.508 1466.43 926.387V882.612C1466.43 882.49 1466.36 882.391 1466.28 882.391C1466.19 882.391 1466.12 882.49 1466.12 882.612V926.387C1466.12 926.508 1466.19 926.607 1466.28 926.607Z" fill="black"/>
<path d="M1457.22 927.816C1457.31 927.816 1457.38 927.717 1457.38 927.595V907.857C1457.38 907.735 1457.31 907.636 1457.22 907.636C1457.14 907.636 1457.07 907.735 1457.07 907.857V927.595C1457.07 927.717 1457.14 927.816 1457.22 927.816Z" fill="black"/>
<path d="M1474.96 873.634C1474.99 873.634 1475.02 873.619 1475.05 873.589C1475.11 873.517 1475.13 873.379 1475.08 873.282L1471.57 866.433C1471.52 866.334 1471.42 866.315 1471.36 866.388C1471.29 866.46 1471.28 866.598 1471.33 866.696L1474.84 873.544C1474.87 873.602 1474.91 873.634 1474.96 873.634Z" fill="black"/>
<path d="M1443.74 916.671C1443.76 916.671 1443.78 916.663 1443.81 916.648C1443.88 916.594 1443.91 916.461 1443.87 916.352L1440.92 907.758C1440.88 907.649 1440.79 907.606 1440.72 907.66C1440.64 907.714 1440.61 907.847 1440.65 907.956L1443.6 916.549C1443.63 916.627 1443.68 916.671 1443.74 916.671Z" fill="black"/>
<path d="M1454.34 786.092C1448.38 777.422 1448.38 763.367 1454.34 754.697C1460.31 746.028 1469.97 746.028 1475.94 754.697C1481.9 763.367 1481.9 777.422 1475.94 786.092C1469.97 794.761 1460.31 794.761 1454.34 786.092Z" fill="#DF5E02"/>
<path d="M1462.85 770.518C1462.87 770.518 1462.89 770.51 1462.91 770.494C1462.94 770.452 1462.95 770.375 1462.92 770.32L1458.4 761.562C1458.37 761.508 1458.32 761.496 1458.28 761.537C1458.25 761.579 1458.24 761.656 1458.27 761.711L1462.79 770.47C1462.8 770.502 1462.83 770.518 1462.85 770.518Z" fill="black"/>
<path d="M1463.11 780.562C1463.13 780.562 1463.15 780.552 1463.17 780.534C1463.2 780.491 1463.21 780.412 1463.18 780.36L1460.66 775.868C1460.63 775.814 1460.58 775.808 1460.54 775.85C1460.5 775.893 1460.5 775.971 1460.53 776.024L1463.05 780.516C1463.06 780.546 1463.09 780.562 1463.11 780.562Z" fill="black"/>
<path d="M1472.26 767.121C1472.27 767.121 1472.29 767.114 1472.3 767.099C1472.34 767.06 1472.35 766.982 1472.33 766.926L1468.59 759.149C1468.56 759.095 1468.51 759.079 1468.47 759.118C1468.43 759.158 1468.42 759.236 1468.45 759.292L1472.19 767.069C1472.2 767.103 1472.23 767.122 1472.26 767.122V767.121Z" fill="black"/>
<path d="M1370.74 860.321H1417.01V927.596H1370.74V860.321Z" fill="#D92C2A"/>
<path d="M1399.97 927.817H1417.16V881.873C1417.16 881.751 1417.09 881.652 1417.01 881.652C1416.93 881.652 1416.86 881.751 1416.86 881.873V927.375H1399.97C1399.89 927.375 1399.82 927.474 1399.82 927.596C1399.82 927.717 1399.89 927.817 1399.97 927.817Z" fill="black"/>
<path d="M1370.74 860.541H1388.89C1388.97 860.541 1389.04 860.442 1389.04 860.321C1389.04 860.199 1388.97 860.1 1388.89 860.1H1370.74C1370.65 860.1 1370.58 860.199 1370.58 860.321C1370.58 860.442 1370.65 860.541 1370.74 860.541Z" fill="black"/>
<path d="M1393.87 899.417C1393.9 899.417 1393.92 899.409 1393.95 899.391C1394.02 899.334 1394.05 899.199 1394.01 899.092C1392.06 893.835 1389.13 885.86 1389.03 885.43C1389 885.315 1388.92 885.247 1388.84 885.291C1388.76 885.329 1388.72 885.455 1388.74 885.569C1388.88 886.174 1393.24 897.959 1393.74 899.301C1393.77 899.375 1393.82 899.417 1393.87 899.417H1393.87Z" fill="black"/>
<path d="M1386.67 914.121C1386.7 914.121 1386.73 914.108 1386.76 914.082C1386.82 914.012 1386.84 913.875 1386.79 913.775L1383.05 905.92C1383 905.821 1382.91 905.795 1382.84 905.864C1382.77 905.934 1382.76 906.071 1382.8 906.171L1386.54 914.026C1386.57 914.088 1386.62 914.121 1386.67 914.121H1386.67Z" fill="black"/>
<path d="M1379.19 873.03H1408.49C1408.57 873.03 1408.64 872.931 1408.64 872.809C1408.64 872.687 1408.57 872.588 1408.49 872.588H1379.19C1379.1 872.588 1379.03 872.687 1379.03 872.809C1379.03 872.931 1379.1 873.03 1379.19 873.03Z" fill="black"/>
<path d="M1370.74 879.475H1381.68C1381.76 879.475 1381.83 879.376 1381.83 879.254C1381.83 879.132 1381.76 879.033 1381.68 879.033H1370.74C1370.65 879.033 1370.58 879.132 1370.58 879.254C1370.58 879.376 1370.65 879.475 1370.74 879.475Z" fill="black"/>
<path d="M1393.87 916.134H1417.01C1417.09 916.134 1417.16 916.035 1417.16 915.913C1417.16 915.792 1417.09 915.692 1417.01 915.692H1393.87C1393.79 915.692 1393.72 915.792 1393.72 915.913C1393.72 916.035 1393.79 916.134 1393.87 916.134Z" fill="black"/>
<path d="M1336.65 934.65C1317.6 934.059 1302.31 923.843 1302.48 911.831C1302.66 899.819 1318.24 890.561 1337.29 891.151C1356.34 891.742 1371.64 901.958 1371.46 913.97C1371.28 925.981 1355.7 935.24 1336.65 934.65Z" fill="#305A60"/>
<path d="M1338.5 921.4C1338.53 921.4 1338.55 921.391 1338.57 921.374L1351.26 911.693C1351.33 911.637 1351.36 911.503 1351.32 911.395C1351.28 911.287 1351.19 911.246 1351.11 911.303L1338.43 920.984C1338.36 921.041 1338.33 921.174 1338.37 921.282C1338.39 921.357 1338.45 921.4 1338.5 921.4Z" fill="black"/>
<path d="M1321.56 919.263C1321.58 919.263 1321.61 919.253 1321.63 919.233L1334.83 907.955C1334.9 907.894 1334.92 907.758 1334.88 907.653C1334.84 907.548 1334.74 907.514 1334.67 907.574L1321.48 918.852C1321.41 918.913 1321.38 919.049 1321.43 919.154C1321.45 919.224 1321.51 919.263 1321.56 919.263Z" fill="black"/>
<path d="M1331.09 902.635C1331.11 902.635 1331.14 902.624 1331.17 902.601L1336.93 897.339C1337 897.275 1337.02 897.138 1336.97 897.035C1336.93 896.93 1336.84 896.9 1336.76 896.965L1331 902.227C1330.93 902.291 1330.91 902.428 1330.96 902.531C1330.99 902.598 1331.04 902.635 1331.09 902.635Z" fill="black"/>
<path d="M1505 882.82C1496.77 854.974 1496.83 828.191 1505.13 822.998C1513.44 817.804 1526.85 836.168 1535.09 864.013C1543.32 891.859 1543.27 918.643 1534.96 923.836C1526.65 929.029 1513.24 910.666 1505 882.82Z" fill="#305A60"/>
<path d="M1524.19 864.228C1524.24 864.228 1524.29 864.196 1524.32 864.135C1524.38 864.029 1524.36 863.878 1524.29 863.795L1511.91 849.824C1511.83 849.742 1511.73 849.762 1511.67 849.867C1511.62 849.973 1511.63 850.124 1511.7 850.207L1524.09 864.179C1524.12 864.213 1524.15 864.229 1524.19 864.229V864.228Z" fill="black"/>
<path d="M1530.41 889.729C1530.46 889.729 1530.51 889.693 1530.55 889.626C1530.6 889.517 1530.58 889.366 1530.51 889.289L1516.8 875.306C1516.72 875.229 1516.62 875.255 1516.57 875.365C1516.51 875.473 1516.53 875.625 1516.61 875.701L1530.31 889.685C1530.34 889.715 1530.38 889.729 1530.41 889.729Z" fill="black"/>
<path d="M1514.7 883.475C1514.75 883.475 1514.81 883.436 1514.84 883.366C1514.89 883.255 1514.87 883.105 1514.79 883.032L1508.57 877.08C1508.5 877.008 1508.39 877.038 1508.35 877.149C1508.29 877.26 1508.32 877.41 1508.39 877.483L1514.61 883.435C1514.64 883.462 1514.67 883.475 1514.7 883.475H1514.7Z" fill="black"/>
<path d="M1518.52 263.405L1549.71 248.992V125.667L1518.52 140.08V263.405Z" fill="#955791"/>
<path d="M1518.52 469.304L1549.71 454.89V404.733L1518.52 419.166V469.304Z" fill="#FDE382"/>
<path d="M1518.52 553.009L1549.71 538.595V505.267L1518.52 519.68V553.009Z" fill="#FEF7DA"/>
<path d="M1518.52 386.584L1549.71 372.151V292.066L1518.52 306.48V386.584Z" fill="#EE9C6A"/>
</g>
<defs>
<linearGradient id="paint0_linear_1346_947" x1="3.4823e-05" y1="781.689" x2="936.019" y2="780.146" gradientUnits="userSpaceOnUse">
<stop stop-color="#ECA58A"/>
<stop offset="0.11" stop-color="#E58F87"/>
<stop offset="0.31" stop-color="#E18185"/>
<stop offset="0.52" stop-color="#DF7B84"/>
<stop offset="0.76" stop-color="#B3668C"/>
<stop offset="1" stop-color="#855094"/>
</linearGradient>
<clipPath id="clip0_1346_947">
<rect width="936" height="1550" fill="white" transform="matrix(0 1 -1 0 1550 0)"/>
</clipPath>
</defs>
</svg>
