<svg width="946" height="366" viewBox="0 0 946 366" fill="none" xmlns="http://www.w3.org/2000/svg">
<path d="M460.979 194.734H349.154H237.31L247.433 182.408L237.31 170.062H349.154H460.979L471.123 182.408L460.979 194.734Z" fill="#C76F72"/>
<path d="M698.308 194.734H586.463H474.618L484.762 182.408L474.618 170.062H586.463H698.308L708.432 182.408L698.308 194.734Z" fill="#FDBB5D"/>
<path d="M935.617 194.734H823.773H711.948L722.071 182.408L711.948 170.062H823.773H935.617L945.741 182.408L935.617 194.734Z" fill="#FF6339"/>
<path d="M355.439 98.832H352.994V182.408H355.439V98.832Z" fill="#C76F72"/>
<path d="M592.747 182.408H590.302V265.983H592.747V182.408Z" fill="#FDBB5D"/>
<path d="M830.057 98.832H827.612V182.408H830.057V98.832Z" fill="#FF6339"/>
<path d="M304.659 49.9898C304.659 77.6147 327.039 100 354.659 100C382.278 100 404.659 77.6147 404.659 49.9898C404.659 22.3649 382.278 0 354.659 0C327.039 0 304.659 22.3853 304.659 49.9898Z" fill="#C76F72"/>
<path d="M541.968 315.72C541.968 288.11 564.353 265.72 591.958 265.72C619.562 265.72 641.968 288.11 641.968 315.72C641.968 343.33 619.582 365.72 591.958 365.72C564.333 365.72 541.968 343.33 541.968 315.72Z" fill="#FDBB5D"/>
<path d="M779.277 49.9898C779.277 22.3649 801.667 0 829.277 0C856.887 0 879.277 22.3853 879.277 49.9898C879.277 77.5943 856.887 100 829.277 100C801.667 100 779.277 77.6147 779.277 49.9898Z" fill="#FF6339"/>
<path d="M223.67 194.734H111.845H0L10.1236 182.408L0 170.062H111.845H223.67L233.793 182.408L223.67 194.734Z" fill="#4D5580"/>
<path d="M118.857 182.408H114.957V265.983H118.857V182.408Z" fill="#4D5580"/>
<path d="M67.3496 315.711C67.3496 288.106 89.7304 265.701 117.35 265.701C144.969 265.701 167.35 288.086 167.35 315.711C167.35 343.336 144.969 365.701 117.35 365.701C89.7304 365.701 67.3496 343.315 67.3496 315.711Z" fill="#4D5580"/>
<path d="M110.936 182.407C110.936 179.113 113.603 176.446 116.897 176.446C120.19 176.446 122.858 179.113 122.858 182.407C122.858 185.701 120.19 188.368 116.897 188.368C113.603 188.368 110.936 185.701 110.936 182.407Z" fill="#F8F1E7"/>
<path d="M348.244 182.407C348.244 179.113 350.911 176.446 354.205 176.446C357.499 176.446 360.166 179.113 360.166 182.407C360.166 185.701 357.499 188.368 354.205 188.368C350.911 188.368 348.244 185.701 348.244 182.407Z" fill="#F8F1E7"/>
<path d="M585.554 182.407C585.554 179.113 588.221 176.446 591.515 176.446C594.808 176.446 597.496 179.113 597.496 182.407C597.496 185.701 594.829 188.368 591.515 188.368C588.201 188.368 585.554 185.701 585.554 182.407Z" fill="#F8F1E7"/>
<path d="M822.883 182.407C822.883 179.113 825.551 176.446 828.844 176.446C832.138 176.446 834.805 179.113 834.805 182.407C834.805 185.701 832.138 188.368 828.844 188.368C825.551 188.368 822.883 185.701 822.883 182.407Z" fill="#F8F1E7"/>
<path d="M107.35 308.724V300.774H121.2V337.274H112.3V308.724H107.35Z" fill="#FFF5DA"/>
<path d="M341.95 60.4239C343.083 59.5239 343.6 59.1073 343.5 59.1739C346.767 56.4739 349.333 54.2573 351.2 52.5239C353.1 50.7906 354.7 48.9739 356 47.0739C357.3 45.1739 357.95 43.3239 357.95 41.5239C357.95 40.1573 357.633 39.0906 357 38.3239C356.367 37.5573 355.417 37.1739 354.15 37.1739C352.883 37.1739 351.883 37.6573 351.15 38.6239C350.45 39.5573 350.1 40.8906 350.1 42.6239H341.85C341.917 39.7906 342.517 37.4239 343.65 35.5239C344.817 33.6239 346.333 32.2239 348.2 31.3239C350.1 30.4239 352.2 29.9739 354.5 29.9739C358.467 29.9739 361.45 30.9906 363.45 33.0239C365.483 35.0573 366.5 37.7073 366.5 40.9739C366.5 44.5406 365.283 47.8573 362.85 50.9239C360.417 53.9573 357.317 56.9239 353.55 59.8239H367.05V66.7739H341.95V60.4239Z" fill="#FFF5DA"/>
<path d="M579.55 314.074C579.683 310.507 580.85 307.757 583.05 305.824C585.25 303.891 588.233 302.924 592 302.924C594.5 302.924 596.633 303.357 598.4 304.224C600.2 305.091 601.55 306.274 602.45 307.774C603.383 309.274 603.85 310.957 603.85 312.824C603.85 315.024 603.3 316.824 602.2 318.224C601.1 319.591 599.817 320.524 598.35 321.024V321.224C600.25 321.857 601.75 322.907 602.85 324.374C603.95 325.841 604.5 327.724 604.5 330.024C604.5 332.091 604.017 333.924 603.05 335.524C602.117 337.091 600.733 338.324 598.9 339.224C597.1 340.124 594.95 340.574 592.45 340.574C588.45 340.574 585.25 339.591 582.85 337.624C580.483 335.657 579.233 332.691 579.1 328.724H587.4C587.433 330.191 587.85 331.357 588.65 332.224C589.45 333.057 590.617 333.474 592.15 333.474C593.45 333.474 594.45 333.107 595.15 332.374C595.883 331.607 596.25 330.607 596.25 329.374C596.25 327.774 595.733 326.624 594.7 325.924C593.7 325.191 592.083 324.824 589.85 324.824H588.25V317.874H589.85C591.55 317.874 592.917 317.591 593.95 317.024C595.017 316.424 595.55 315.374 595.55 313.874C595.55 312.674 595.217 311.741 594.55 311.074C593.883 310.407 592.967 310.074 591.8 310.074C590.533 310.074 589.583 310.457 588.95 311.224C588.35 311.991 588 312.941 587.9 314.074H579.55Z" fill="#FFF5DA"/>
<path d="M811.45 60.9536V54.0536L827.25 31.4536H836.8V53.5536H840.9V60.9536H836.8V67.4536H828.25V60.9536H811.45ZM828.85 40.8536L820.45 53.5536H828.85V40.8536Z" fill="#FFF5DA"/>
<path d="M747.693 252.479C748.486 251.849 748.848 251.557 748.778 251.604C751.065 249.714 752.861 248.162 754.168 246.949C755.498 245.736 756.618 244.464 757.528 243.134C758.438 241.804 758.893 240.509 758.893 239.249C758.893 238.292 758.671 237.546 758.228 237.009C757.785 236.472 757.12 236.204 756.233 236.204C755.346 236.204 754.646 236.542 754.133 237.219C753.643 237.872 753.398 238.806 753.398 240.019H747.623C747.67 238.036 748.09 236.379 748.883 235.049C749.7 233.719 750.761 232.739 752.068 232.109C753.398 231.479 754.868 231.164 756.478 231.164C759.255 231.164 761.343 231.876 762.743 233.299C764.166 234.722 764.878 236.577 764.878 238.864C764.878 241.361 764.026 243.682 762.323 245.829C760.62 247.952 758.45 250.029 755.813 252.059H765.263V256.924H747.693V252.479ZM784.208 236.204L775.423 257.274H769.298L778.188 236.869H767.303V231.759H784.208V236.204ZM793.451 247.474C793.451 245.467 793.824 243.706 794.571 242.189C795.341 240.672 796.379 239.506 797.686 238.689C798.992 237.872 800.451 237.464 802.061 237.464C803.344 237.464 804.511 237.732 805.561 238.269C806.634 238.806 807.474 239.529 808.081 240.439V231.374H814.066V257.274H808.081V254.474C807.521 255.407 806.716 256.154 805.666 256.714C804.639 257.274 803.437 257.554 802.061 257.554C800.451 257.554 798.992 257.146 797.686 256.329C796.379 255.489 795.341 254.311 794.571 252.794C793.824 251.254 793.451 249.481 793.451 247.474ZM808.081 247.509C808.081 246.016 807.661 244.837 806.821 243.974C806.004 243.111 805.001 242.679 803.811 242.679C802.621 242.679 801.606 243.111 800.766 243.974C799.949 244.814 799.541 245.981 799.541 247.474C799.541 248.967 799.949 250.157 800.766 251.044C801.606 251.907 802.621 252.339 803.811 252.339C805.001 252.339 806.004 251.907 806.821 251.044C807.661 250.181 808.081 249.002 808.081 247.509ZM817.206 247.474C817.206 245.467 817.579 243.706 818.326 242.189C819.096 240.672 820.134 239.506 821.441 238.689C822.747 237.872 824.206 237.464 825.816 237.464C827.192 237.464 828.394 237.744 829.421 238.304C830.471 238.864 831.276 239.599 831.836 240.509V237.744H837.821V257.274H831.836V254.509C831.252 255.419 830.436 256.154 829.386 256.714C828.359 257.274 827.157 257.554 825.781 257.554C824.194 257.554 822.747 257.146 821.441 256.329C820.134 255.489 819.096 254.311 818.326 252.794C817.579 251.254 817.206 249.481 817.206 247.474ZM831.836 247.509C831.836 246.016 831.416 244.837 830.576 243.974C829.759 243.111 828.756 242.679 827.566 242.679C826.376 242.679 825.361 243.111 824.521 243.974C823.704 244.814 823.296 245.981 823.296 247.474C823.296 248.967 823.704 250.157 824.521 251.044C825.361 251.907 826.376 252.339 827.566 252.339C828.756 252.339 829.759 251.907 830.576 251.044C831.416 250.181 831.836 249.002 831.836 247.509ZM854.05 237.534C856.337 237.534 858.157 238.281 859.51 239.774C860.887 241.244 861.575 243.274 861.575 245.864V257.274H855.625V246.669C855.625 245.362 855.287 244.347 854.61 243.624C853.934 242.901 853.024 242.539 851.88 242.539C850.737 242.539 849.827 242.901 849.15 243.624C848.474 244.347 848.135 245.362 848.135 246.669V257.274H842.15V237.744H848.135V240.334C848.742 239.471 849.559 238.794 850.585 238.304C851.612 237.791 852.767 237.534 854.05 237.534ZM872.346 252.479C873.14 251.849 873.501 251.557 873.431 251.604C875.718 249.714 877.515 248.162 878.821 246.949C880.151 245.736 881.271 244.464 882.181 243.134C883.091 241.804 883.546 240.509 883.546 239.249C883.546 238.292 883.325 237.546 882.881 237.009C882.438 236.472 881.773 236.204 880.886 236.204C880 236.204 879.3 236.542 878.786 237.219C878.296 237.872 878.051 238.806 878.051 240.019H872.276C872.323 238.036 872.743 236.379 873.536 235.049C874.353 233.719 875.415 232.739 876.721 232.109C878.051 231.479 879.521 231.164 881.131 231.164C883.908 231.164 885.996 231.876 887.396 233.299C888.82 234.722 889.531 236.577 889.531 238.864C889.531 241.361 888.68 243.682 886.976 245.829C885.273 247.952 883.103 250.029 880.466 252.059H889.916V256.924H872.346V252.479ZM896.752 243.554C894.558 242.387 893.462 240.556 893.462 238.059C893.462 236.799 893.788 235.656 894.442 234.629C895.095 233.579 896.087 232.751 897.417 232.144C898.747 231.514 900.38 231.199 902.317 231.199C904.253 231.199 905.875 231.514 907.182 232.144C908.512 232.751 909.503 233.579 910.157 234.629C910.81 235.656 911.137 236.799 911.137 238.059C911.137 239.319 910.833 240.416 910.227 241.349C909.643 242.282 908.85 243.017 907.847 243.554C909.107 244.161 910.075 245.001 910.752 246.074C911.428 247.124 911.767 248.361 911.767 249.784C911.767 251.441 911.347 252.876 910.507 254.089C909.667 255.279 908.523 256.189 907.077 256.819C905.653 257.449 904.067 257.764 902.317 257.764C900.567 257.764 898.968 257.449 897.522 256.819C896.098 256.189 894.967 255.279 894.127 254.089C893.287 252.876 892.867 251.441 892.867 249.784C892.867 248.337 893.205 247.089 893.882 246.039C894.558 244.966 895.515 244.137 896.752 243.554ZM905.327 238.969C905.327 238.012 905.047 237.277 904.487 236.764C903.95 236.227 903.227 235.959 902.317 235.959C901.407 235.959 900.672 236.227 900.112 236.764C899.575 237.301 899.307 238.047 899.307 239.004C899.307 239.914 899.587 240.637 900.147 241.174C900.707 241.687 901.43 241.944 902.317 241.944C903.203 241.944 903.927 241.676 904.487 241.139C905.047 240.602 905.327 239.879 905.327 238.969ZM902.317 246.144C901.22 246.144 900.333 246.447 899.657 247.054C898.98 247.637 898.642 248.454 898.642 249.504C898.642 250.484 898.968 251.289 899.622 251.919C900.298 252.549 901.197 252.864 902.317 252.864C903.437 252.864 904.312 252.549 904.942 251.919C905.595 251.289 905.922 250.484 905.922 249.504C905.922 248.477 905.583 247.661 904.907 247.054C904.253 246.447 903.39 246.144 902.317 246.144ZM815.339 285.704V302.434C815.339 305.024 814.604 307.019 813.134 308.419C811.687 309.819 809.727 310.519 807.254 310.519C804.664 310.519 802.587 309.784 801.024 308.314C799.46 306.844 798.679 304.756 798.679 302.049H804.629C804.629 303.076 804.839 303.857 805.259 304.394C805.679 304.907 806.285 305.164 807.079 305.164C807.802 305.164 808.362 304.931 808.759 304.464C809.155 303.997 809.354 303.321 809.354 302.434V285.704H815.339ZM839.458 290.744V310.274H833.473V307.614C832.866 308.477 832.038 309.177 830.988 309.714C829.961 310.227 828.818 310.484 827.558 310.484C826.065 310.484 824.746 310.157 823.603 309.504C822.46 308.827 821.573 307.859 820.943 306.599C820.313 305.339 819.998 303.857 819.998 302.154V290.744H825.948V301.349C825.948 302.656 826.286 303.671 826.963 304.394C827.64 305.117 828.55 305.479 829.693 305.479C830.86 305.479 831.781 305.117 832.458 304.394C833.135 303.671 833.473 302.656 833.473 301.349V290.744H839.458ZM849.742 284.374V310.274H843.757V284.374H849.742ZM857.089 288.714C856.039 288.714 855.176 288.411 854.499 287.804C853.846 287.174 853.519 286.404 853.519 285.494C853.519 284.561 853.846 283.791 854.499 283.184C855.176 282.554 856.039 282.239 857.089 282.239C858.116 282.239 858.956 282.554 859.609 283.184C860.286 283.791 860.624 284.561 860.624 285.494C860.624 286.404 860.286 287.174 859.609 287.804C858.956 288.411 858.116 288.714 857.089 288.714ZM860.064 290.744V310.274H854.079V290.744H860.064Z" fill="#FF6339"/>
<path d="M511.91 77.4789C512.704 76.8489 513.065 76.5573 512.995 76.6039C515.282 74.7139 517.079 73.1623 518.385 71.9489C519.715 70.7356 520.835 69.4639 521.745 68.1339C522.655 66.8039 523.11 65.5089 523.11 64.2489C523.11 63.2923 522.889 62.5456 522.445 62.0089C522.002 61.4723 521.337 61.2039 520.45 61.2039C519.564 61.2039 518.864 61.5423 518.35 62.2189C517.86 62.8723 517.615 63.8056 517.615 65.0189H511.84C511.887 63.0356 512.307 61.3789 513.1 60.0489C513.917 58.7189 514.979 57.7389 516.285 57.1089C517.615 56.4789 519.085 56.1639 520.695 56.1639C523.472 56.1639 525.56 56.8756 526.96 58.2989C528.384 59.7223 529.095 61.5773 529.095 63.8639C529.095 66.3606 528.244 68.6823 526.54 70.8289C524.837 72.9523 522.667 75.0289 520.03 77.0589H529.48V81.9239H511.91V77.4789ZM532.116 69.1489C532.116 65.1356 532.886 61.9739 534.426 59.6639C535.989 57.3539 538.497 56.1989 541.951 56.1989C545.404 56.1989 547.901 57.3539 549.441 59.6639C551.004 61.9739 551.786 65.1356 551.786 69.1489C551.786 73.2089 551.004 76.3939 549.441 78.7039C547.901 81.0139 545.404 82.1689 541.951 82.1689C538.497 82.1689 535.989 81.0139 534.426 78.7039C532.886 76.3939 532.116 73.2089 532.116 69.1489ZM545.906 69.1489C545.906 66.7923 545.649 64.9839 545.136 63.7239C544.622 62.4406 543.561 61.7989 541.951 61.7989C540.341 61.7989 539.279 62.4406 538.766 63.7239C538.252 64.9839 537.996 66.7923 537.996 69.1489C537.996 70.7356 538.089 72.0539 538.276 73.1039C538.462 74.1306 538.836 74.9706 539.396 75.6239C539.979 76.2539 540.831 76.5689 541.951 76.5689C543.071 76.5689 543.911 76.2539 544.471 75.6239C545.054 74.9706 545.439 74.1306 545.626 73.1039C545.812 72.0539 545.906 70.7356 545.906 69.1489ZM561.77 72.4739C561.77 70.4673 562.143 68.7056 562.89 67.1889C563.66 65.6723 564.698 64.5056 566.005 63.6889C567.311 62.8723 568.77 62.4639 570.38 62.4639C571.663 62.4639 572.83 62.7323 573.88 63.2689C574.953 63.8056 575.793 64.5289 576.4 65.4389V56.3739H582.385V82.2739H576.4V79.4739C575.84 80.4073 575.035 81.1539 573.985 81.7139C572.958 82.2739 571.756 82.5539 570.38 82.5539C568.77 82.5539 567.311 82.1456 566.005 81.3289C564.698 80.4889 563.66 79.3106 562.89 77.7939C562.143 76.2539 561.77 74.4806 561.77 72.4739ZM576.4 72.5089C576.4 71.0156 575.98 69.8373 575.14 68.9739C574.323 68.1106 573.32 67.6789 572.13 67.6789C570.94 67.6789 569.925 68.1106 569.085 68.9739C568.268 69.8139 567.86 70.9806 567.86 72.4739C567.86 73.9673 568.268 75.1573 569.085 76.0439C569.925 76.9073 570.94 77.3389 572.13 77.3389C573.32 77.3389 574.323 76.9073 575.14 76.0439C575.98 75.1806 576.4 74.0023 576.4 72.5089ZM585.524 72.4739C585.524 70.4673 585.898 68.7056 586.644 67.1889C587.414 65.6723 588.453 64.5056 589.759 63.6889C591.066 62.8723 592.524 62.4639 594.134 62.4639C595.511 62.4639 596.713 62.7439 597.739 63.3039C598.789 63.8639 599.594 64.5989 600.154 65.5089V62.7439H606.139V82.2739H600.154V79.5089C599.571 80.4189 598.754 81.1539 597.704 81.7139C596.678 82.2739 595.476 82.5539 594.099 82.5539C592.513 82.5539 591.066 82.1456 589.759 81.3289C588.453 80.4889 587.414 79.3106 586.644 77.7939C585.898 76.2539 585.524 74.4806 585.524 72.4739ZM600.154 72.5089C600.154 71.0156 599.734 69.8373 598.894 68.9739C598.078 68.1106 597.074 67.6789 595.884 67.6789C594.694 67.6789 593.679 68.1106 592.839 68.9739C592.023 69.8139 591.614 70.9806 591.614 72.4739C591.614 73.9673 592.023 75.1573 592.839 76.0439C593.679 76.9073 594.694 77.3389 595.884 77.3389C597.074 77.3389 598.078 76.9073 598.894 76.0439C599.734 75.1806 600.154 74.0023 600.154 72.5089ZM622.369 62.5339C624.656 62.5339 626.476 63.2806 627.829 64.7739C629.206 66.2439 629.894 68.2739 629.894 70.8639V82.2739H623.944V71.6689C623.944 70.3623 623.606 69.3473 622.929 68.6239C622.253 67.9006 621.343 67.5389 620.199 67.5389C619.056 67.5389 618.146 67.9006 617.469 68.6239C616.793 69.3473 616.454 70.3623 616.454 71.6689V82.2739H610.469V62.7439H616.454V65.3339C617.061 64.4706 617.878 63.7939 618.904 63.3039C619.931 62.7906 621.086 62.5339 622.369 62.5339ZM640.665 77.4789C641.459 76.8489 641.82 76.5573 641.75 76.6039C644.037 74.7139 645.834 73.1623 647.14 71.9489C648.47 70.7356 649.59 69.4639 650.5 68.1339C651.41 66.8039 651.865 65.5089 651.865 64.2489C651.865 63.2923 651.644 62.5456 651.2 62.0089C650.757 61.4723 650.092 61.2039 649.205 61.2039C648.319 61.2039 647.619 61.5423 647.105 62.2189C646.615 62.8723 646.37 63.8056 646.37 65.0189H640.595C640.642 63.0356 641.062 61.3789 641.855 60.0489C642.672 58.7189 643.734 57.7389 645.04 57.1089C646.37 56.4789 647.84 56.1639 649.45 56.1639C652.227 56.1639 654.315 56.8756 655.715 58.2989C657.139 59.7223 657.85 61.5773 657.85 63.8639C657.85 66.3606 656.999 68.6823 655.295 70.8289C653.592 72.9523 651.422 75.0289 648.785 77.0589H658.235V81.9239H640.665V77.4789ZM660.24 62.2889V56.7239H669.935V82.2739H663.705V62.2889H660.24ZM576.839 110.704V127.434C576.839 130.024 576.104 132.019 574.634 133.419C573.187 134.819 571.227 135.519 568.754 135.519C566.164 135.519 564.087 134.784 562.524 133.314C560.96 131.844 560.179 129.756 560.179 127.049H566.129C566.129 128.076 566.339 128.857 566.759 129.394C567.179 129.907 567.785 130.164 568.579 130.164C569.302 130.164 569.862 129.931 570.259 129.464C570.655 128.997 570.854 128.321 570.854 127.434V110.704H576.839ZM600.958 115.744V135.274H594.973V132.614C594.366 133.477 593.538 134.177 592.488 134.714C591.461 135.227 590.318 135.484 589.058 135.484C587.565 135.484 586.246 135.157 585.103 134.504C583.96 133.827 583.073 132.859 582.443 131.599C581.813 130.339 581.498 128.857 581.498 127.154V115.744H587.448V126.349C587.448 127.656 587.786 128.671 588.463 129.394C589.14 130.117 590.05 130.479 591.193 130.479C592.36 130.479 593.281 130.117 593.958 129.394C594.635 128.671 594.973 127.656 594.973 126.349V115.744H600.958ZM611.242 109.374V135.274H605.257V109.374H611.242ZM618.589 113.714C617.539 113.714 616.676 113.411 615.999 112.804C615.346 112.174 615.019 111.404 615.019 110.494C615.019 109.561 615.346 108.791 615.999 108.184C616.676 107.554 617.539 107.239 618.589 107.239C619.616 107.239 620.456 107.554 621.109 108.184C621.786 108.791 622.124 109.561 622.124 110.494C622.124 111.404 621.786 112.174 621.109 112.804C620.456 113.411 619.616 113.714 618.589 113.714ZM621.564 115.744V135.274H615.579V115.744H621.564Z" fill="#FDBB5D"/>
<path d="M65.2383 63.6189C65.0517 62.7556 64.725 62.1139 64.2583 61.6939C63.7917 61.2506 63.1267 61.0289 62.2633 61.0289C60.9333 61.0289 59.9767 61.6123 59.3933 62.7789C58.81 63.9223 58.5067 65.7423 58.4833 68.2389C58.9967 67.4223 59.7317 66.7806 60.6883 66.3139C61.6683 65.8473 62.7417 65.6139 63.9083 65.6139C66.195 65.6139 68.0267 66.3373 69.4033 67.7839C70.8033 69.2306 71.5033 71.2489 71.5033 73.8389C71.5033 75.5423 71.1533 77.0356 70.4533 78.3189C69.7767 79.6023 68.7733 80.6056 67.4433 81.3289C66.1367 82.0523 64.585 82.4139 62.7883 82.4139C59.195 82.4139 56.6983 81.2939 55.2983 79.0539C53.8983 76.7906 53.1983 73.5473 53.1983 69.3239C53.1983 64.8906 53.9333 61.6006 55.4033 59.4539C56.8967 57.2839 59.2767 56.1989 62.5433 56.1989C64.2933 56.1989 65.7633 56.5489 66.9533 57.2489C68.1667 57.9256 69.0767 58.8239 69.6833 59.9439C70.3133 61.0639 70.6867 62.2889 70.8033 63.6189H65.2383ZM62.4733 70.3389C61.47 70.3389 60.63 70.6423 59.9533 71.2489C59.3 71.8323 58.9733 72.6723 58.9733 73.7689C58.9733 74.8889 59.2767 75.7639 59.8833 76.3939C60.5133 77.0239 61.4 77.3389 62.5433 77.3389C63.57 77.3389 64.375 77.0356 64.9583 76.4289C65.565 75.7989 65.8683 74.9473 65.8683 73.8739C65.8683 72.7773 65.5767 71.9139 64.9933 71.2839C64.41 70.6539 63.57 70.3389 62.4733 70.3389ZM81.7105 72.4739C81.7105 70.4673 82.0838 68.7056 82.8305 67.1889C83.6005 65.6723 84.6388 64.5056 85.9455 63.6889C87.2521 62.8723 88.7105 62.4639 90.3205 62.4639C91.6038 62.4639 92.7705 62.7323 93.8205 63.2689C94.8938 63.8056 95.7338 64.5289 96.3405 65.4389V56.3739H102.325V82.2739H96.3405V79.4739C95.7805 80.4073 94.9755 81.1539 93.9255 81.7139C92.8988 82.2739 91.6971 82.5539 90.3205 82.5539C88.7105 82.5539 87.2521 82.1456 85.9455 81.3289C84.6388 80.4889 83.6005 79.3106 82.8305 77.7939C82.0838 76.2539 81.7105 74.4806 81.7105 72.4739ZM96.3405 72.5089C96.3405 71.0156 95.9205 69.8373 95.0805 68.9739C94.2638 68.1106 93.2605 67.6789 92.0705 67.6789C90.8805 67.6789 89.8655 68.1106 89.0255 68.9739C88.2088 69.8139 87.8005 70.9806 87.8005 72.4739C87.8005 73.9673 88.2088 75.1573 89.0255 76.0439C89.8655 76.9073 90.8805 77.3389 92.0705 77.3389C93.2605 77.3389 94.2638 76.9073 95.0805 76.0439C95.9205 75.1806 96.3405 74.0023 96.3405 72.5089ZM105.465 72.4739C105.465 70.4673 105.839 68.7056 106.585 67.1889C107.355 65.6723 108.394 64.5056 109.7 63.6889C111.007 62.8723 112.465 62.4639 114.075 62.4639C115.452 62.4639 116.654 62.7439 117.68 63.3039C118.73 63.8639 119.535 64.5989 120.095 65.5089V62.7439H126.08V82.2739H120.095V79.5089C119.512 80.4189 118.695 81.1539 117.645 81.7139C116.619 82.2739 115.417 82.5539 114.04 82.5539C112.454 82.5539 111.007 82.1456 109.7 81.3289C108.394 80.4889 107.355 79.3106 106.585 77.7939C105.839 76.2539 105.465 74.4806 105.465 72.4739ZM120.095 72.5089C120.095 71.0156 119.675 69.8373 118.835 68.9739C118.019 68.1106 117.015 67.6789 115.825 67.6789C114.635 67.6789 113.62 68.1106 112.78 68.9739C111.964 69.8139 111.555 70.9806 111.555 72.4739C111.555 73.9673 111.964 75.1573 112.78 76.0439C113.62 76.9073 114.635 77.3389 115.825 77.3389C117.015 77.3389 118.019 76.9073 118.835 76.0439C119.675 75.1806 120.095 74.0023 120.095 72.5089ZM142.31 62.5339C144.597 62.5339 146.417 63.2806 147.77 64.7739C149.147 66.2439 149.835 68.2739 149.835 70.8639V82.2739H143.885V71.6689C143.885 70.3623 143.547 69.3473 142.87 68.6239C142.194 67.9006 141.284 67.5389 140.14 67.5389C138.997 67.5389 138.087 67.9006 137.41 68.6239C136.734 69.3473 136.395 70.3623 136.395 71.6689V82.2739H130.41V62.7439H136.395V65.3339C137.002 64.4706 137.819 63.7939 138.845 63.3039C139.872 62.7906 141.027 62.5339 142.31 62.5339ZM177.126 61.2039L168.341 82.2739H162.216L171.106 61.8689H160.221V56.7589H177.126V61.2039ZM99.8386 110.704V127.434C99.8386 130.024 99.1036 132.019 97.6336 133.419C96.1869 134.819 94.2269 135.519 91.7536 135.519C89.1636 135.519 87.0869 134.784 85.5236 133.314C83.9602 131.844 83.1786 129.756 83.1786 127.049H89.1286C89.1286 128.076 89.3386 128.857 89.7586 129.394C90.1786 129.907 90.7852 130.164 91.5786 130.164C92.3019 130.164 92.8619 129.931 93.2586 129.464C93.6552 128.997 93.8536 128.321 93.8536 127.434V110.704H99.8386ZM123.958 115.744V135.274H117.973V132.614C117.366 133.477 116.538 134.177 115.488 134.714C114.461 135.227 113.318 135.484 112.058 135.484C110.565 135.484 109.246 135.157 108.103 134.504C106.96 133.827 106.073 132.859 105.443 131.599C104.813 130.339 104.498 128.857 104.498 127.154V115.744H110.448V126.349C110.448 127.656 110.786 128.671 111.463 129.394C112.14 130.117 113.05 130.479 114.193 130.479C115.36 130.479 116.281 130.117 116.958 129.394C117.635 128.671 117.973 127.656 117.973 126.349V115.744H123.958ZM134.242 109.374V135.274H128.257V109.374H134.242ZM141.589 113.714C140.539 113.714 139.676 113.411 138.999 112.804C138.346 112.174 138.019 111.404 138.019 110.494C138.019 109.561 138.346 108.791 138.999 108.184C139.676 107.554 140.539 107.239 141.589 107.239C142.616 107.239 143.456 107.554 144.109 108.184C144.786 108.791 145.124 109.561 145.124 110.494C145.124 111.404 144.786 112.174 144.109 112.804C143.456 113.411 142.616 113.714 141.589 113.714ZM144.564 115.744V135.274H138.579V115.744H144.564Z" fill="#4D5580"/>
<path d="M274.883 234.289V228.724H284.578V254.274H278.348V234.289H274.883ZM288.882 235.934C288.976 233.437 289.792 231.512 291.332 230.159C292.872 228.806 294.961 228.129 297.597 228.129C299.347 228.129 300.841 228.432 302.077 229.039C303.337 229.646 304.282 230.474 304.912 231.524C305.566 232.574 305.892 233.752 305.892 235.059C305.892 236.599 305.507 237.859 304.737 238.839C303.967 239.796 303.069 240.449 302.042 240.799V240.939C303.372 241.382 304.422 242.117 305.192 243.144C305.962 244.171 306.347 245.489 306.347 247.099C306.347 248.546 306.009 249.829 305.332 250.949C304.679 252.046 303.711 252.909 302.427 253.539C301.167 254.169 299.662 254.484 297.912 254.484C295.112 254.484 292.872 253.796 291.192 252.419C289.536 251.042 288.661 248.966 288.567 246.189H294.377C294.401 247.216 294.692 248.032 295.252 248.639C295.812 249.222 296.629 249.514 297.702 249.514C298.612 249.514 299.312 249.257 299.802 248.744C300.316 248.207 300.572 247.507 300.572 246.644C300.572 245.524 300.211 244.719 299.487 244.229C298.787 243.716 297.656 243.459 296.092 243.459H294.972V238.594H296.092C297.282 238.594 298.239 238.396 298.962 237.999C299.709 237.579 300.082 236.844 300.082 235.794C300.082 234.954 299.849 234.301 299.382 233.834C298.916 233.367 298.274 233.134 297.457 233.134C296.571 233.134 295.906 233.402 295.462 233.939C295.042 234.476 294.797 235.141 294.727 235.934H288.882ZM316.686 244.474C316.686 242.467 317.059 240.706 317.806 239.189C318.576 237.672 319.614 236.506 320.921 235.689C322.227 234.872 323.686 234.464 325.296 234.464C326.579 234.464 327.746 234.732 328.796 235.269C329.869 235.806 330.709 236.529 331.316 237.439V228.374H337.301V254.274H331.316V251.474C330.756 252.407 329.951 253.154 328.901 253.714C327.874 254.274 326.672 254.554 325.296 254.554C323.686 254.554 322.227 254.146 320.921 253.329C319.614 252.489 318.576 251.311 317.806 249.794C317.059 248.254 316.686 246.481 316.686 244.474ZM331.316 244.509C331.316 243.016 330.896 241.837 330.056 240.974C329.239 240.111 328.236 239.679 327.046 239.679C325.856 239.679 324.841 240.111 324.001 240.974C323.184 241.814 322.776 242.981 322.776 244.474C322.776 245.967 323.184 247.157 324.001 248.044C324.841 248.907 325.856 249.339 327.046 249.339C328.236 249.339 329.239 248.907 330.056 248.044C330.896 247.181 331.316 246.002 331.316 244.509ZM340.44 244.474C340.44 242.467 340.814 240.706 341.56 239.189C342.33 237.672 343.369 236.506 344.675 235.689C345.982 234.872 347.44 234.464 349.05 234.464C350.427 234.464 351.629 234.744 352.655 235.304C353.705 235.864 354.51 236.599 355.07 237.509V234.744H361.055V254.274H355.07V251.509C354.487 252.419 353.67 253.154 352.62 253.714C351.594 254.274 350.392 254.554 349.015 254.554C347.429 254.554 345.982 254.146 344.675 253.329C343.369 252.489 342.33 251.311 341.56 249.794C340.814 248.254 340.44 246.481 340.44 244.474ZM355.07 244.509C355.07 243.016 354.65 241.837 353.81 240.974C352.994 240.111 351.99 239.679 350.8 239.679C349.61 239.679 348.595 240.111 347.755 240.974C346.939 241.814 346.53 242.981 346.53 244.474C346.53 245.967 346.939 247.157 347.755 248.044C348.595 248.907 349.61 249.339 350.8 249.339C351.99 249.339 352.994 248.907 353.81 248.044C354.65 247.181 355.07 246.002 355.07 244.509ZM377.285 234.534C379.572 234.534 381.392 235.281 382.745 236.774C384.122 238.244 384.81 240.274 384.81 242.864V254.274H378.86V243.669C378.86 242.362 378.522 241.347 377.845 240.624C377.169 239.901 376.259 239.539 375.115 239.539C373.972 239.539 373.062 239.901 372.385 240.624C371.709 241.347 371.37 242.362 371.37 243.669V254.274H365.385V234.744H371.37V237.334C371.977 236.471 372.794 235.794 373.82 235.304C374.847 234.791 376.002 234.534 377.285 234.534ZM395.161 234.289V228.724H404.856V254.274H398.626V234.289H395.161ZM409.09 249.724V244.894L420.15 229.074H426.835V244.544H429.705V249.724H426.835V254.274H420.85V249.724H409.09ZM421.27 235.654L415.39 244.544H421.27V235.654ZM337.839 282.704V299.434C337.839 302.024 337.104 304.019 335.634 305.419C334.187 306.819 332.227 307.519 329.754 307.519C327.164 307.519 325.087 306.784 323.524 305.314C321.96 303.844 321.179 301.756 321.179 299.049H327.129C327.129 300.076 327.339 300.857 327.759 301.394C328.179 301.907 328.785 302.164 329.579 302.164C330.302 302.164 330.862 301.931 331.259 301.464C331.655 300.997 331.854 300.321 331.854 299.434V282.704H337.839ZM361.958 287.744V307.274H355.973V304.614C355.366 305.477 354.538 306.177 353.488 306.714C352.461 307.227 351.318 307.484 350.058 307.484C348.565 307.484 347.246 307.157 346.103 306.504C344.96 305.827 344.073 304.859 343.443 303.599C342.813 302.339 342.498 300.857 342.498 299.154V287.744H348.448V298.349C348.448 299.656 348.786 300.671 349.463 301.394C350.14 302.117 351.05 302.479 352.193 302.479C353.36 302.479 354.281 302.117 354.958 301.394C355.635 300.671 355.973 299.656 355.973 298.349V287.744H361.958ZM372.242 281.374V307.274H366.257V281.374H372.242ZM379.589 285.714C378.539 285.714 377.676 285.411 376.999 284.804C376.346 284.174 376.019 283.404 376.019 282.494C376.019 281.561 376.346 280.791 376.999 280.184C377.676 279.554 378.539 279.239 379.589 279.239C380.616 279.239 381.456 279.554 382.109 280.184C382.786 280.791 383.124 281.561 383.124 282.494C383.124 283.404 382.786 284.174 382.109 284.804C381.456 285.411 380.616 285.714 379.589 285.714ZM382.564 287.744V307.274H376.579V287.744H382.564Z" fill="#C76F72"/>
</svg>
